name rise49.5252peak65.1548fall88.8305.mot
datacolumns 19
datarows 27
range 14.56160300000000 14.60494200000000
endheader
time	ground_force1_vx	ground_force1_vy	ground_force1_vz	ground_force1_px	ground_force1_py	ground_force1_pz	ground_force2_vx	ground_force2_vy	ground_force2_vz	ground_force2_px	ground_force2_py	ground_force2_pz	ground_torque1_x	ground_torque1_y	ground_torque1_z	ground_torque2_x	ground_torque2_y	ground_torque2_z	
14.56160300000000	65.61239399999999	780.21266900000001	63.64282000000000	0.38879800000000	0.00000000000000	0.11518600000000	0.00000000000000	0.00000000000000	0.00000000000000	0.00000000000000	0.00000000000000	0.00000000000000	0.00000000000000	33.64199600000000	0.00000000000000	0.00000000000000	0.00000000000000	0.00000000000000	
14.56327300000000	64.88524400000000	782.61936300000002	63.76371000000000	0.38750400000000	0.00000000000000	0.11523300000000	0.00000000000000	0.00000000000000	0.00000000000000	0.00000000000000	0.00000000000000	0.00000000000000	0.00000000000000	33.72167100000000	0.00000000000000	0.00000000000000	0.00000000000000	0.00000000000000	
14.56493700000000	64.15224800000000	784.87933599999997	63.88202400000000	0.38622800000000	0.00000000000000	0.11528000000000	0.00000000000000	0.00000000000000	0.00000000000000	0.00000000000000	0.00000000000000	0.00000000000000	0.00000000000000	33.80223300000000	0.00000000000000	0.00000000000000	0.00000000000000	0.00000000000000	
14.56660600000000	63.41397100000000	786.99131100000000	63.99765100000000	0.38496900000000	0.00000000000000	0.11532700000000	0.00000000000000	0.00000000000000	0.00000000000000	0.00000000000000	0.00000000000000	0.00000000000000	0.00000000000000	33.88360700000000	0.00000000000000	0.00000000000000	0.00000000000000	0.00000000000000	
14.56827700000000	62.67092800000000	788.95417999999995	64.11040300000001	0.38372700000000	0.00000000000000	0.11537400000000	0.00000000000000	0.00000000000000	0.00000000000000	0.00000000000000	0.00000000000000	0.00000000000000	0.00000000000000	33.96565200000000	0.00000000000000	0.00000000000000	0.00000000000000	0.00000000000000	
14.56994000000000	61.92359400000000	790.76702200000000	64.22001800000000	0.38250200000000	0.00000000000000	0.11542100000000	0.00000000000000	0.00000000000000	0.00000000000000	0.00000000000000	0.00000000000000	0.00000000000000	0.00000000000000	34.04817500000000	0.00000000000000	0.00000000000000	0.00000000000000	0.00000000000000	
14.57160300000000	61.17239900000000	792.42910600000005	64.32616700000000	0.38129500000000	0.00000000000000	0.11546800000000	0.00000000000000	0.00000000000000	0.00000000000000	0.00000000000000	0.00000000000000	0.00000000000000	0.00000000000000	34.13092500000000	0.00000000000000	0.00000000000000	0.00000000000000	0.00000000000000	
14.57327400000000	60.41773700000000	793.93991300000005	64.42845600000000	0.38010500000000	0.00000000000000	0.11551500000000	0.00000000000000	0.00000000000000	0.00000000000000	0.00000000000000	0.00000000000000	0.00000000000000	0.00000000000000	34.21360500000000	0.00000000000000	0.00000000000000	0.00000000000000	0.00000000000000	
14.57493800000000	59.65996400000000	795.29913699999997	64.52643500000001	0.37893200000000	0.00000000000000	0.11556100000000	0.00000000000000	0.00000000000000	0.00000000000000	0.00000000000000	0.00000000000000	0.00000000000000	0.00000000000000	34.29587000000000	0.00000000000000	0.00000000000000	0.00000000000000	0.00000000000000	
14.57661000000000	58.89940600000000	796.50669600000003	64.61960300000000	0.37777500000000	0.00000000000000	0.11560700000000	0.00000000000000	0.00000000000000	0.00000000000000	0.00000000000000	0.00000000000000	0.00000000000000	0.00000000000000	34.37733500000000	0.00000000000000	0.00000000000000	0.00000000000000	0.00000000000000	
14.57827100000000	58.13635600000000	797.56274399999995	64.70741400000000	0.37663400000000	0.00000000000000	0.11565300000000	0.00000000000000	0.00000000000000	0.00000000000000	0.00000000000000	0.00000000000000	0.00000000000000	0.00000000000000	34.45757800000000	0.00000000000000	0.00000000000000	0.00000000000000	0.00000000000000	
14.57994300000000	57.37108400000000	798.46767299999999	64.78928200000000	0.37550900000000	0.00000000000000	0.11569800000000	0.00000000000000	0.00000000000000	0.00000000000000	0.00000000000000	0.00000000000000	0.00000000000000	0.00000000000000	34.53614700000000	0.00000000000000	0.00000000000000	0.00000000000000	0.00000000000000	
14.58160700000000	56.60383300000000	799.22211900000002	64.86459200000000	0.37439900000000	0.00000000000000	0.11574300000000	0.00000000000000	0.00000000000000	0.00000000000000	0.00000000000000	0.00000000000000	0.00000000000000	0.00000000000000	34.61256000000000	0.00000000000000	0.00000000000000	0.00000000000000	0.00000000000000	
14.58327300000000	55.83482900000000	799.82696999999996	64.93270300000000	0.37330400000000	0.00000000000000	0.11578700000000	0.00000000000000	0.00000000000000	0.00000000000000	0.00000000000000	0.00000000000000	0.00000000000000	0.00000000000000	34.68631400000000	0.00000000000000	0.00000000000000	0.00000000000000	0.00000000000000	
14.58494200000000	55.06427900000000	800.28336400000001	64.99295400000000	0.37222100000000	0.00000000000000	0.11583000000000	0.00000000000000	0.00000000000000	0.00000000000000	0.00000000000000	0.00000000000000	0.00000000000000	0.00000000000000	34.75688800000000	0.00000000000000	0.00000000000000	0.00000000000000	0.00000000000000	
14.58660800000000	54.29237800000000	800.59269700000004	65.04467600000000	0.37115200000000	0.00000000000000	0.11587200000000	0.00000000000000	0.00000000000000	0.00000000000000	0.00000000000000	0.00000000000000	0.00000000000000	0.00000000000000	34.82374900000000	0.00000000000000	0.00000000000000	0.00000000000000	0.00000000000000	
14.58827400000000	53.51930800000000	800.75661700000001	65.08719600000001	0.37009500000000	0.00000000000000	0.11591400000000	0.00000000000000	0.00000000000000	0.00000000000000	0.00000000000000	0.00000000000000	0.00000000000000	0.00000000000000	34.88635500000000	0.00000000000000	0.00000000000000	0.00000000000000	0.00000000000000	
14.58993700000000	52.74524500000000	800.77703099999997	65.11984000000000	0.36904800000000	0.00000000000000	0.11595400000000	0.00000000000000	0.00000000000000	0.00000000000000	0.00000000000000	0.00000000000000	0.00000000000000	0.00000000000000	34.94416100000000	0.00000000000000	0.00000000000000	0.00000000000000	0.00000000000000	
14.59160500000000	51.97035900000000	800.65609500000005	65.14194700000000	0.36801200000000	0.00000000000000	0.11599300000000	0.00000000000000	0.00000000000000	0.00000000000000	0.00000000000000	0.00000000000000	0.00000000000000	0.00000000000000	34.99662400000000	0.00000000000000	0.00000000000000	0.00000000000000	0.00000000000000	
14.59327200000000	51.19481900000000	800.39621799999998	65.15287100000000	0.36698600000000	0.00000000000000	0.11603200000000	0.00000000000000	0.00000000000000	0.00000000000000	0.00000000000000	0.00000000000000	0.00000000000000	0.00000000000000	35.04320700000000	0.00000000000000	0.00000000000000	0.00000000000000	0.00000000000000	
14.59494100000000	50.41879400000000	800.00005499999997	65.15198800000000	0.36596700000000	0.00000000000000	0.11606900000000	0.00000000000000	0.00000000000000	0.00000000000000	0.00000000000000	0.00000000000000	0.00000000000000	0.00000000000000	35.08338300000000	0.00000000000000	0.00000000000000	0.00000000000000	0.00000000000000	
14.59660500000000	49.64245400000000	799.47050200000001	65.13870100000000	0.36495600000000	0.00000000000000	0.11610500000000	0.00000000000000	0.00000000000000	0.00000000000000	0.00000000000000	0.00000000000000	0.00000000000000	0.00000000000000	35.11663900000000	0.00000000000000	0.00000000000000	0.00000000000000	0.00000000000000	
14.59826900000000	48.86597700000000	798.81068900000002	65.11244800000000	0.36395000000000	0.00000000000000	0.11613900000000	0.00000000000000	0.00000000000000	0.00000000000000	0.00000000000000	0.00000000000000	0.00000000000000	0.00000000000000	35.14248400000000	0.00000000000000	0.00000000000000	0.00000000000000	0.00000000000000	
14.59994000000000	48.08954600000000	798.02397299999996	65.07270699999999	0.36295000000000	0.00000000000000	0.11617200000000	0.00000000000000	0.00000000000000	0.00000000000000	0.00000000000000	0.00000000000000	0.00000000000000	0.00000000000000	35.16044500000000	0.00000000000000	0.00000000000000	0.00000000000000	0.00000000000000	
14.60160600000000	47.31335400000000	797.11393099999998	65.01899800000000	0.36195400000000	0.00000000000000	0.11620400000000	0.00000000000000	0.00000000000000	0.00000000000000	0.00000000000000	0.00000000000000	0.00000000000000	0.00000000000000	35.17008100000000	0.00000000000000	0.00000000000000	0.00000000000000	0.00000000000000	
14.60327200000000	46.53760400000000	796.08434599999998	64.95089299999999	0.36096000000000	0.00000000000000	0.11623500000000	0.00000000000000	0.00000000000000	0.00000000000000	0.00000000000000	0.00000000000000	0.00000000000000	0.00000000000000	35.17097700000000	0.00000000000000	0.00000000000000	0.00000000000000	0.00000000000000	
14.60494200000000	45.76251000000000	794.93920400000002	64.86801400000000	0.35996800000000	0.00000000000000	0.11626400000000	0.00000000000000	0.00000000000000	0.00000000000000	0.00000000000000	0.00000000000000	0.00000000000000	0.00000000000000	35.16275400000000	0.00000000000000	0.00000000000000	0.00000000000000	0.00000000000000	
